<svg width="28" height="29" viewBox="0 0 28 29" fill="none" xmlns="http://www.w3.org/2000/svg">
<path d="M11.5486 20.0043V11.5776L9.86328 13.1576" stroke="white" stroke-opacity="0.7" stroke-width="1.264" stroke-linecap="round" stroke-linejoin="round"/>
<path d="M14.9189 19.4778C15.3591 19.8084 15.9061 20.0043 16.4989 20.0043C17.9533 20.0043 19.1323 18.8253 19.1323 17.371C19.1323 15.9166 17.9533 14.7376 16.4989 14.7376C15.9061 14.7376 15.3591 14.9335 14.9189 15.2641L15.4456 11.5776H19.1323" stroke="white" stroke-opacity="0.7" stroke-width="1.264" stroke-linecap="round" stroke-linejoin="round"/>
<path d="M6.02998 6.87592C1.26487 11.2903 1.00419 18.7063 5.44772 23.4401C9.89126 28.1739 17.3563 28.4329 22.1214 24.0185C26.8866 19.6042 27.1472 12.1882 22.7037 7.45436C20.1762 4.76176 16.6711 3.51693 13.2414 3.7564M14.9184 1.04443L11.9136 3.89073L14.9184 6.9431" stroke="white" stroke-opacity="0.7" stroke-width="2.10667" stroke-linecap="round" stroke-linejoin="round"/>
</svg>
