<svg width="28" height="29" viewBox="0 0 28 29" fill="none" xmlns="http://www.w3.org/2000/svg">
<path d="M11.3748 20.039V11.6123L9.68945 13.1923" stroke="white" stroke-opacity="0.7" stroke-width="1.264" stroke-linecap="round" stroke-linejoin="round"/>
<path d="M14.7461 19.5125C15.1862 19.8431 15.7333 20.039 16.3261 20.039C17.7804 20.039 18.9594 18.86 18.9594 17.4056C18.9594 15.9513 17.7804 14.7723 16.3261 14.7723C15.7333 14.7723 15.1862 14.9682 14.7461 15.2988L15.2728 11.6123H18.9594" stroke="white" stroke-opacity="0.7" stroke-width="1.264" stroke-linecap="round" stroke-linejoin="round"/>
<path d="M21.9485 6.9101C26.7136 11.3244 26.9743 18.7405 22.5308 23.4743C18.0873 28.2081 10.6222 28.4671 5.85707 24.0527C1.09196 19.6384 0.831277 12.2223 5.27481 7.48854C7.8023 4.79594 11.3074 3.55111 14.7371 3.79058M13.0601 1.07861L16.0649 3.92491L13.0601 6.97728" stroke="white" stroke-opacity="0.7" stroke-width="2.10667" stroke-linecap="round" stroke-linejoin="round"/>
</svg>
