<svg width="88" height="6" viewBox="0 0 88 6" fill="none" xmlns="http://www.w3.org/2000/svg">
<path d="M0.333333 3C0.333333 4.47276 1.52724 5.66667 3 5.66667C4.47276 5.66667 5.66667 4.47276 5.66667 3C5.66667 1.52724 4.47276 0.333333 3 0.333333C1.52724 0.333333 0.333333 1.52724 0.333333 3ZM82.3333 3C82.3333 4.47276 83.5272 5.66667 85 5.66667C86.4728 5.66667 87.6667 4.47276 87.6667 3C87.6667 1.52724 86.4728 0.333333 85 0.333333C83.5272 0.333333 82.3333 1.52724 82.3333 3ZM3 3V3.5H85V3V2.5H3V3Z" fill="white"/>
</svg>
